<svg width="308" height="53" viewBox="0 0 308 53" fill="none" xmlns="http://www.w3.org/2000/svg">
<path fill-rule="evenodd" clip-rule="evenodd" d="M18.1044 34.3075L26.206 43.7804L34.3065 34.3064L43.7805 26.2059L34.3076 18.1043L26.206 8.63251L18.1055 18.1043L8.63257 26.2059L18.1044 34.3075ZM22.2526 30.1603L26.2059 34.7834L30.1604 30.1603L34.7834 26.2059L30.1604 22.2515L26.2059 17.6285L22.2526 22.2515L17.6285 26.2059L22.2526 30.1603Z" fill="#EAEAEA"/>
<path d="M74.9669 35.3616H70.6204V17.0513H74.9669V35.3616Z" fill="#EAEAEA"/>
<path d="M86.5074 31.5394V35.3616H82.1609V17.0513H86.5074V24.8445L91.0038 17.0513H94.9251L89.9794 25.5946L95.6004 35.3616H90.9542L87.6321 29.6162L86.5085 31.5394H86.5074Z" fill="#EAEAEA"/>
<path d="M105.942 35.3616H101.596V17.0513H105.942V35.3616Z" fill="#EAEAEA"/>
<path d="M129.423 24.7453V31.7641C127.624 34.0872 124.852 35.5863 121.729 35.6106C116.783 35.5852 112.337 31.5383 112.311 26.2929C112.311 21.247 116.408 16.8751 121.704 16.8002C123.902 16.8002 125.926 17.5492 127.524 18.7983L126.05 22.0709C125.051 21.172 123.727 20.4726 122.279 20.4726C119.331 20.4726 116.908 23.1206 116.908 26.2676C116.908 29.2152 119.131 31.9382 122.279 31.9382C123.703 31.9382 124.952 31.3389 126.05 30.3145V27.7921H120.829L121.054 24.7442H129.422L129.423 24.7453Z" fill="#EAEAEA"/>
<path d="M134.319 35.3616L141.714 17.0513H142.588L149.983 35.3616H145.536L144.562 32.989H138.742L137.768 35.3616H134.32H134.319ZM143.362 29.9665L141.663 25.7202L139.939 29.9665H143.362Z" fill="#EAEAEA"/>
<path d="M160.199 35.3616H155.853V17.0513H160.199V35.3616Z" fill="#EAEAEA"/>
<path d="M194.371 32.9383C192.673 34.5873 190.35 35.6117 187.802 35.6117C182.831 35.6117 178.384 31.4898 178.384 26.2191C178.384 21.248 182.555 16.8013 187.802 16.8013C189.975 16.8013 191.973 17.5503 193.573 18.7994L192.124 22.0466C191.125 21.1478 189.801 20.6224 188.327 20.6224C185.38 20.6224 183.057 23.1448 183.057 26.2676C183.057 29.2152 185.23 31.8886 188.327 31.8886C189.677 31.8886 190.9 31.4138 192 30.515L194.372 32.9383H194.371Z" fill="#EAEAEA"/>
<path d="M199.192 26.1938C199.192 21.1478 203.464 16.8013 208.585 16.8013C213.706 16.8013 217.977 21.0729 217.977 26.1938C217.977 31.3147 213.806 35.5863 208.585 35.5863C203.364 35.5863 199.192 31.34 199.192 26.1938ZM208.585 32.2884C211.507 32.2884 213.356 28.9916 213.356 26.1938C213.356 23.396 211.457 20.0992 208.585 20.0992C205.713 20.0992 203.814 23.3717 203.814 26.1938C203.814 29.0159 205.713 32.2884 208.585 32.2884Z" fill="#EAEAEA"/>
<path d="M232.416 26.9428L237.512 17.0513H237.986L241.758 35.3616H237.337L235.713 27.6676L231.966 35.5368L227.919 27.5927L226.27 35.3616H222.822L226.743 17.0513H227.243L232.414 26.9428H232.416Z" fill="#EAEAEA"/>
<path d="M255.423 35.3616H248.004V17.0513H254.674C257.047 17.0513 259.196 19.0748 259.196 21.5972C259.196 22.4961 258.921 23.3211 258.471 24.0448C260.294 25.1694 261.468 27.1422 261.468 29.2659C261.468 32.5881 258.745 35.2856 255.423 35.3605V35.3616ZM252.326 20.1994V23.5722H254.299C254.999 23.5722 255.649 22.9972 255.649 21.8484C255.649 20.9991 255.15 20.1994 254.4 20.1994H252.327H252.326ZM254.773 32.0395C255.897 32.0395 257.021 30.8653 257.021 29.017C257.021 27.1687 255.897 26.0693 254.698 26.0693H252.326V32.0395H254.773Z" fill="#EAEAEA"/>
<path d="M265.69 35.3616L273.085 17.0513H273.959L281.354 35.3616H276.907L275.933 32.989H270.113L269.139 35.3616H265.691H265.69ZM274.732 29.9665L273.034 25.7202L271.31 29.9665H274.732Z" fill="#EAEAEA"/>
<path d="M293.043 20.3239V35.3616H288.696V20.3239H284.7L284.95 17.0513H296.815L297.065 20.3239H293.044H293.043Z" fill="#EAEAEA"/>
</svg>
